<?xml version="1.0" encoding="UTF-8" standalone="no"?>
<svg xmlns:ffdec="https://www.free-decompiler.com/flash" xmlns:xlink="http://www.w3.org/1999/xlink" ffdec:objectType="frame" height="37.1px" width="39.95px" xmlns="http://www.w3.org/2000/svg">
  <g transform="matrix(1.0, 0.0, 0.0, 1.0, 19.35, 17.95)">
    <use ffdec:characterId="7" height="37.1" transform="matrix(1.0, 0.0, 0.0, 1.0, -19.35, -17.95)" width="39.95" xlink:href="#shape0"/>
  </g>
  <defs>
    <g id="shape0" transform="matrix(1.0, 0.0, 0.0, 1.0, 19.35, 17.95)">
      <path d="M16.4 -12.5 Q24.15 -1.15 17.65 10.45 15.2 14.75 10.5 16.8 -5.9 23.65 -16.75 10.35 -20.75 5.35 -18.6 -1.0 -15.95 -9.0 -9.45 -13.45 -6.1 -15.75 -1.8 -17.15 0.95 -18.0 3.8 -17.95 L8.2 -17.45 Q11.8 -16.5 14.7 -13.65 L14.95 -13.4 15.45 -13.3 Q16.1 -13.15 16.4 -12.5 M6.35 4.25 Q5.95 5.75 4.75 5.6 1.2 8.8 -4.15 7.75 L-7.9 4.85 -8.6 4.25 -8.6 4.15 -9.1 3.25 Q-9.45 1.15 -9.15 -1.0 L-9.1 -1.35 -8.85 -1.6 Q-7.95 -2.8 -6.6 -3.55 L-6.6 -3.9 -6.3 -4.45 Q-0.45 -6.75 3.55 -4.45 5.25 -2.25 5.95 0.35 L6.0 0.3 6.25 0.75 6.1 1.2 6.35 3.65 6.35 3.9 6.35 4.25 M0.15 -3.45 L-0.25 -3.9 -2.8 -3.8 Q-3.75 -3.3 -4.85 -3.05 L-5.2 -2.85 Q-5.6 -1.55 -6.3 -0.25 L-7.0 0.95 -7.0 1.95 -6.85 2.9 Q-5.65 4.6 -3.65 5.55 L-2.85 5.7 Q-0.3 6.0 2.55 4.25 3.35 2.55 3.2 0.6 L2.95 -1.35 Q1.85 -2.85 0.15 -3.45 M6.35 -11.8 Q19.2 -7.5 15.25 5.55 L15.1 5.8 Q18.5 -8.3 4.05 -11.6 L6.35 -11.8 M3.75 -15.2 Q-10.95 -14.25 -15.7 -1.6 -19.15 7.5 -11.05 13.0 -2.2 18.9 7.95 15.2 21.15 10.4 18.75 -2.35 16.35 -14.75 3.75 -15.2 M4.5 1.8 L4.55 1.65 4.5 0.75 4.5 1.8" fill="#000000" fill-rule="evenodd" stroke="none"/>
      <path d="M-3.3 11.05 Q0.55 13.65 5.7 11.55 8.45 11.6 10.1 8.9 19.05 -5.55 1.6 -10.35 L0.1 -10.1 Q-6.1 -8.95 -9.65 -3.8 L-9.85 -3.55 Q-9.35 -3.15 -9.1 -3.2 L-6.3 -4.45 -6.6 -3.9 -6.6 -3.55 Q-7.95 -2.8 -8.85 -1.6 L-9.1 -1.35 -9.15 -1.0 Q-9.45 1.15 -9.1 3.25 L-8.6 4.15 -8.6 4.25 -7.9 4.85 -4.15 7.75 Q1.2 8.8 4.75 5.6 5.95 5.75 6.35 4.25 L6.8 4.25 6.1 6.45 5.95 6.8 Q1.8 9.6 -3.0 10.1 L-3.0 10.2 -4.75 9.95 Q-4.1 10.6 -3.3 11.05 M3.75 -15.2 Q16.35 -14.75 18.75 -2.35 21.15 10.4 7.95 15.2 -2.2 18.9 -11.05 13.0 -19.15 7.5 -15.7 -1.6 -10.95 -14.25 3.75 -15.2 M6.35 -11.8 L4.05 -11.6 Q18.5 -8.3 15.1 5.8 L15.25 5.55 Q19.2 -7.5 6.35 -11.8" fill="#3a2fcc" fill-rule="evenodd" stroke="none"/>
      <path d="M-9.65 -3.8 Q-6.1 -8.95 0.1 -10.1 L1.6 -10.35 Q19.05 -5.55 10.1 8.9 8.45 11.6 5.7 11.55 0.55 13.65 -3.3 11.05 L-3.0 10.2 -2.05 10.35 -3.0 10.1 Q1.8 9.6 5.95 6.8 L6.1 6.45 6.8 4.25 Q7.05 2.45 6.5 0.7 L6.35 0.15 6.2 -0.15 6.1 -0.65 Q6.2 -1.45 6.8 -1.6 5.35 -3.5 3.55 -4.45 -0.45 -6.75 -6.3 -4.45 L-9.1 -3.2 -9.65 -3.8" fill="#6666ff" fill-rule="evenodd" stroke="none"/>
      <path d="M-3.3 11.05 Q-4.1 10.6 -4.75 9.95 L-3.0 10.2 -3.3 11.05 M-9.1 -3.2 Q-9.35 -3.15 -9.85 -3.55 L-9.65 -3.8 -9.1 -3.2" fill="#66ffff" fill-rule="evenodd" stroke="none"/>
      <path d="M-3.0 10.2 L-3.0 10.1 -2.05 10.35 -3.0 10.2 M6.8 4.25 L6.35 4.25 6.35 3.9 6.35 3.65 6.1 1.2 6.25 0.75 6.0 0.3 5.95 0.35 Q5.25 -2.25 3.55 -4.45 5.35 -3.5 6.8 -1.6 6.2 -1.45 6.1 -0.65 L6.2 -0.15 6.35 0.15 6.5 0.7 Q7.05 2.45 6.8 4.25" fill="#993333" fill-rule="evenodd" stroke="none"/>
    </g>
  </defs>
</svg>
