<?xml version="1.0" encoding="UTF-8" standalone="no"?>
<svg xmlns:ffdec="https://www.free-decompiler.com/flash" xmlns:xlink="http://www.w3.org/1999/xlink" ffdec:objectType="frame" height="37.05px" width="40.1px" xmlns="http://www.w3.org/2000/svg">
  <g transform="matrix(1.0, 0.0, 0.0, 1.0, 28.2, 14.4)">
    <use ffdec:characterId="9" height="37.05" transform="matrix(1.0, 0.0, 0.0, 1.0, -28.2, -14.4)" width="40.1" xlink:href="#shape0"/>
  </g>
  <defs>
    <g id="shape0" transform="matrix(1.0, 0.0, 0.0, 1.0, 28.2, 14.4)">
      <path d="M4.55 -11.05 L4.45 -10.8 4.1 -10.7 3.75 -10.5 3.65 -10.45 2.55 -10.8 2.25 -11.05 1.4 -11.05 1.35 -11.05 -1.7 -11.0 Q-4.8 -12.0 -8.05 -11.75 L-8.05 -12.5 Q-1.85 -12.75 4.55 -11.05" fill="#75b5bf" fill-rule="evenodd" stroke="none"/>
      <path d="M4.45 -10.8 L4.9 -10.55 5.25 -10.15 Q6.8 -7.7 6.95 -5.05 9.5 1.1 4.6 8.3 L4.25 8.15 4.25 5.0 4.75 4.2 Q6.15 -0.65 3.9 -5.4 L3.75 -5.5 2.3 -6.2 2.05 -7.2 1.4 -6.95 0.1 -7.2 Q-5.7 -9.3 -12.15 -8.1 L-19.0 -7.85 -19.05 -7.95 Q-17.75 -8.95 -16.25 -9.65 L-15.9 -9.9 -14.75 -10.0 Q-11.35 -11.5 -8.05 -11.75 -4.8 -12.0 -1.7 -11.0 L1.35 -11.05 1.4 -11.05 2.25 -11.05 2.55 -10.8 3.65 -10.45 3.75 -10.5 4.1 -10.7 4.45 -10.8" fill="#6666ff" fill-rule="evenodd" stroke="none"/>
      <path d="M4.55 -11.05 L4.6 -11.05 5.65 -10.7 7.45 -7.6 Q8.05 -4.35 9.1 -0.8 L8.95 -0.55 Q8.1 4.3 6.75 9.1 6.8 9.55 6.95 9.4 10.0 4.25 9.95 -0.75 12.35 10.0 5.1 20.45 3.65 19.85 3.15 18.3 1.45 13.65 -1.05 9.85 -0.35 8.0 1.3 6.45 L0.65 5.25 Q2.15 1.95 1.4 -1.1 L1.1 -1.35 Q-5.05 -7.35 -10.75 -2.45 L-12.15 -1.7 -12.5 -1.85 Q-15.0 -3.15 -17.45 -4.05 L-17.6 -4.15 Q-22.45 -5.5 -26.05 -7.75 -17.25 -12.25 -8.05 -12.5 L-8.05 -11.75 Q-11.35 -11.5 -14.75 -10.0 L-15.9 -9.9 -16.25 -9.65 Q-17.75 -8.95 -19.05 -7.95 L-19.0 -7.85 -12.15 -8.1 Q-5.7 -9.3 0.1 -7.2 L1.4 -6.95 2.05 -7.2 2.3 -6.2 3.75 -5.5 3.9 -5.4 Q6.15 -0.65 4.75 4.2 L4.25 5.0 4.25 8.15 Q4.2 8.9 4.45 8.55 L4.6 8.35 4.6 8.3 Q9.5 1.1 6.95 -5.05 6.8 -7.7 5.25 -10.15 L4.9 -10.55 4.45 -10.8 4.55 -11.05" fill="#3a2fcc" fill-rule="evenodd" stroke="none"/>
      <path d="M-8.05 -12.5 Q-17.25 -12.25 -26.05 -7.75 -22.45 -5.5 -17.6 -4.15 L-17.45 -4.05 Q-15.0 -3.15 -12.5 -1.85 L-12.15 -1.7 -10.75 -2.45 Q-5.05 -7.35 1.1 -1.35 L1.4 -1.1 Q2.15 1.95 0.65 5.25 L1.3 6.45 Q-0.35 8.0 -1.05 9.85 1.45 13.65 3.15 18.3 3.65 19.85 5.1 20.45 12.35 10.0 9.95 -0.75 10.0 4.25 6.95 9.4 6.8 9.55 6.75 9.1 8.1 4.3 8.95 -0.55 L9.1 -0.8 Q8.05 -4.35 7.45 -7.6 L5.65 -10.7 4.6 -11.05 4.55 -11.05 Q-1.85 -12.75 -8.05 -12.5 M6.55 -12.5 Q7.8 -12.15 8.4 -10.8 16.0 5.4 7.05 21.15 5.4 24.0 3.15 21.35 -0.55 17.1 -3.3 12.1 L-3.35 11.95 -3.7 11.25 Q-3.1 10.1 -2.95 9.05 L-1.85 8.4 Q1.15 3.9 -0.1 -1.15 -3.3 -3.55 -7.35 -2.9 -8.0 -2.45 -8.75 -2.2 L-9.05 -2.05 Q-9.8 -1.35 -10.05 -0.3 L-11.3 0.25 -11.8 0.4 Q-12.75 0.2 -13.45 -0.3 -17.1 -1.7 -20.3 -3.6 L-21.5 -3.8 -21.75 -3.85 Q-25.55 -4.85 -28.2 -7.3 -27.15 -10.4 -22.6 -11.5 L-19.6 -12.3 Q-6.4 -16.4 6.55 -12.5" fill="#000000" fill-rule="evenodd" stroke="none"/>
      <path d="M4.6 8.35 L4.45 8.55 Q4.2 8.9 4.25 8.15 L4.6 8.35" fill="#ffff66" fill-rule="evenodd" stroke="none"/>
      <path d="M4.6 8.3 L4.6 8.35 4.25 8.15 4.6 8.3" fill="#66ffff" fill-rule="evenodd" stroke="none"/>
    </g>
  </defs>
</svg>
